<svg data-v-423bf9ae="" xmlns="http://www.w3.org/2000/svg" viewBox="0 0 199.73876953125 60" class="font"><!----><!----><!----><g data-v-423bf9ae="" id="a170eccf-04ef-4d09-9254-c96373076597" fill="#F7F9FD" transform="matrix(4.8979591836734695,0,0,4.8979591836734695,-4.114282182284768,-2.7428566180929863)"><path d="M0.84 1.05L0.84 12.60L5.22 12.60C7.62 12.60 9.00 11.28 9.00 9.38C9.00 7.52 7.98 6.72 6.54 6.47C7.52 5.96 7.98 5.05 7.98 3.99C7.98 1.79 6.41 1.05 4.42 1.05ZM3.47 5.57L3.47 3.08L3.68 3.08C4.83 3.08 5.43 3.43 5.43 4.26C5.43 5.22 4.82 5.57 3.68 5.57ZM3.47 10.57L3.47 7.84L4.30 7.84C5.54 7.84 6.23 8.22 6.23 9.28C6.23 10.19 5.54 10.57 4.30 10.57ZM10.16 12.60L12.64 12.60L12.64 8.82C12.64 8.64 12.82 7.36 14.11 7.36C14.94 7.36 15.40 7.76 15.40 7.76L16.44 5.66C16.44 5.66 15.79 5.21 14.87 5.21C13.45 5.21 12.67 6.45 12.67 6.45L12.64 6.45L12.64 5.42L10.16 5.42ZM16.53 9.02C16.53 11.23 18.27 12.81 20.86 12.81C23.34 12.81 25.14 11.23 25.14 9.02C25.14 6.78 23.24 5.21 20.86 5.21C18.44 5.21 16.53 6.78 16.53 9.02ZM19.17 9.02C19.17 8.02 19.91 7.32 20.85 7.32C21.77 7.32 22.51 8.02 22.51 9.02C22.51 10.00 21.81 10.70 20.85 10.70C19.84 10.70 19.17 10.00 19.17 9.02ZM34.51 5.42L31.29 5.42L28.78 7.92L28.78 0.56L26.31 0.56L26.31 12.60L28.78 12.60L28.78 9.73L31.65 12.60L34.85 12.60L31.09 8.85ZM35.35 12.60L37.83 12.60L37.83 8.82C37.83 8.64 38.01 7.36 39.30 7.36C40.12 7.36 40.59 7.76 40.59 7.76L41.62 5.66C41.62 5.66 40.98 5.21 40.05 5.21C38.64 5.21 37.86 6.45 37.86 6.45L37.83 6.45L37.83 5.42L35.35 5.42Z"></path></g><!----><!----></svg>